<?xml version="1.0" encoding="utf-8"?><svg xmlns="http://www.w3.org/2000/svg" xmlns:xlink="http://www.w3.org/1999/xlink"><symbol viewBox="0 0 46.354 46.354" id="advan-01" xmlns="http://www.w3.org/2000/svg"><path d="M21.57 2.049a1.796 1.796 0 0 1 3.218 0l5.771 11.695c.261.529.767.896 1.352.981L44.817 16.6a1.792 1.792 0 0 1 .994 3.06l-9.338 9.104a1.796 1.796 0 0 0-.517 1.588l2.204 12.855a1.797 1.797 0 0 1-2.605 1.893l-11.544-6.07a1.793 1.793 0 0 0-1.67 0l-11.544 6.069a1.795 1.795 0 0 1-2.604-1.892l2.204-12.855a1.794 1.794 0 0 0-.517-1.588L.542 19.66a1.794 1.794 0 0 1 .995-3.06l12.908-1.875a1.794 1.794 0 0 0 1.351-.982L21.57 2.049z"/></symbol><symbol viewBox="0 0 46.354 46.354" id="advan-02" xmlns="http://www.w3.org/2000/svg"><path d="M21.57 2.049a1.796 1.796 0 0 1 3.218 0l5.771 11.695c.261.529.767.896 1.352.981L44.817 16.6a1.792 1.792 0 0 1 .994 3.06l-9.338 9.104a1.796 1.796 0 0 0-.517 1.588l2.204 12.855a1.797 1.797 0 0 1-2.605 1.893l-11.544-6.07a1.793 1.793 0 0 0-1.67 0l-11.544 6.069a1.795 1.795 0 0 1-2.604-1.892l2.204-12.855a1.794 1.794 0 0 0-.517-1.588L.542 19.66a1.794 1.794 0 0 1 .995-3.06l12.908-1.875a1.794 1.794 0 0 0 1.351-.982L21.57 2.049z"/></symbol><symbol viewBox="0 0 46.354 46.354" id="advan-03" xmlns="http://www.w3.org/2000/svg"><path d="M21.57 2.049a1.796 1.796 0 0 1 3.218 0l5.771 11.695c.261.529.767.896 1.352.981L44.817 16.6a1.792 1.792 0 0 1 .994 3.06l-9.338 9.104a1.796 1.796 0 0 0-.517 1.588l2.204 12.855a1.797 1.797 0 0 1-2.605 1.893l-11.544-6.07a1.793 1.793 0 0 0-1.67 0l-11.544 6.069a1.795 1.795 0 0 1-2.604-1.892l2.204-12.855a1.794 1.794 0 0 0-.517-1.588L.542 19.66a1.794 1.794 0 0 1 .995-3.06l12.908-1.875a1.794 1.794 0 0 0 1.351-.982L21.57 2.049z"/></symbol><symbol viewBox="0 0 46.354 46.354" id="advan-04" xmlns="http://www.w3.org/2000/svg"><path d="M21.57 2.049a1.796 1.796 0 0 1 3.218 0l5.771 11.695c.261.529.767.896 1.352.981L44.817 16.6a1.792 1.792 0 0 1 .994 3.06l-9.338 9.104a1.796 1.796 0 0 0-.517 1.588l2.204 12.855a1.797 1.797 0 0 1-2.605 1.893l-11.544-6.07a1.793 1.793 0 0 0-1.67 0l-11.544 6.069a1.795 1.795 0 0 1-2.604-1.892l2.204-12.855a1.794 1.794 0 0 0-.517-1.588L.542 19.66a1.794 1.794 0 0 1 .995-3.06l12.908-1.875a1.794 1.794 0 0 0 1.351-.982L21.57 2.049z"/></symbol><symbol viewBox="0 0 46.354 46.354" id="advan-05" xmlns="http://www.w3.org/2000/svg"><path d="M21.57 2.049a1.796 1.796 0 0 1 3.218 0l5.771 11.695c.261.529.767.896 1.352.981L44.817 16.6a1.792 1.792 0 0 1 .994 3.06l-9.338 9.104a1.796 1.796 0 0 0-.517 1.588l2.204 12.855a1.797 1.797 0 0 1-2.605 1.893l-11.544-6.07a1.793 1.793 0 0 0-1.67 0l-11.544 6.069a1.795 1.795 0 0 1-2.604-1.892l2.204-12.855a1.794 1.794 0 0 0-.517-1.588L.542 19.66a1.794 1.794 0 0 1 .995-3.06l12.908-1.875a1.794 1.794 0 0 0 1.351-.982L21.57 2.049z"/></symbol><symbol viewBox="0 0 46.354 46.354" id="advan-06" xmlns="http://www.w3.org/2000/svg"><path d="M21.57 2.049a1.796 1.796 0 0 1 3.218 0l5.771 11.695c.261.529.767.896 1.352.981L44.817 16.6a1.792 1.792 0 0 1 .994 3.06l-9.338 9.104a1.796 1.796 0 0 0-.517 1.588l2.204 12.855a1.797 1.797 0 0 1-2.605 1.893l-11.544-6.07a1.793 1.793 0 0 0-1.67 0l-11.544 6.069a1.795 1.795 0 0 1-2.604-1.892l2.204-12.855a1.794 1.794 0 0 0-.517-1.588L.542 19.66a1.794 1.794 0 0 1 .995-3.06l12.908-1.875a1.794 1.794 0 0 0 1.351-.982L21.57 2.049z"/></symbol><symbol viewBox="0 0 46.354 46.354" id="advan-07" xmlns="http://www.w3.org/2000/svg"><path d="M21.57 2.049a1.796 1.796 0 0 1 3.218 0l5.771 11.695c.261.529.767.896 1.352.981L44.817 16.6a1.792 1.792 0 0 1 .994 3.06l-9.338 9.104a1.796 1.796 0 0 0-.517 1.588l2.204 12.855a1.797 1.797 0 0 1-2.605 1.893l-11.544-6.07a1.793 1.793 0 0 0-1.67 0l-11.544 6.069a1.795 1.795 0 0 1-2.604-1.892l2.204-12.855a1.794 1.794 0 0 0-.517-1.588L.542 19.66a1.794 1.794 0 0 1 .995-3.06l12.908-1.875a1.794 1.794 0 0 0 1.351-.982L21.57 2.049z"/></symbol><symbol viewBox="0 0 46.354 46.354" id="advan-08" xmlns="http://www.w3.org/2000/svg"><path d="M21.57 2.049a1.796 1.796 0 0 1 3.218 0l5.771 11.695c.261.529.767.896 1.352.981L44.817 16.6a1.792 1.792 0 0 1 .994 3.06l-9.338 9.104a1.796 1.796 0 0 0-.517 1.588l2.204 12.855a1.797 1.797 0 0 1-2.605 1.893l-11.544-6.07a1.793 1.793 0 0 0-1.67 0l-11.544 6.069a1.795 1.795 0 0 1-2.604-1.892l2.204-12.855a1.794 1.794 0 0 0-.517-1.588L.542 19.66a1.794 1.794 0 0 1 .995-3.06l12.908-1.875a1.794 1.794 0 0 0 1.351-.982L21.57 2.049z"/></symbol><symbol viewBox="0 0 18.7 35.4" id="arrow" xmlns="http://www.w3.org/2000/svg"><path d="M18.7 17L1.5 0 .1 1.4l16.2 16.3L0 34l1.6 1.4 17.1-17z"/></symbol><symbol viewBox="0 0 15.642 15.642" id="close" xmlns="http://www.w3.org/2000/svg"><path fill-rule="evenodd" d="M8.882 7.821l6.541-6.541A.75.75 0 1 0 14.362.219L7.821 6.76 1.28.22A.75.75 0 1 0 .219 1.281L6.76 7.822l-6.54 6.54a.75.75 0 0 0 1.06 1.061l6.541-6.541 6.541 6.541a.75.75 0 1 0 1.06-1.061l-6.54-6.541z"/></symbol><symbol viewBox="0 0 437.6 437.6" id="info" xmlns="http://www.w3.org/2000/svg"><path d="M194 142.8c.8 1.6 1.6 3.2 2.4 4.4.8 1.2 2 2.4 2.8 3.6 1.2 1.2 2.4 2.4 4 3.6 1.2.8 2.8 2 4.8 2.4 1.6.8 3.2 1.2 5.2 1.6 2 .4 3.6.4 5.2.4s3.6 0 5.2-.4 3.2-.8 4.4-1.6h.4c1.6-.8 3.2-1.6 4.8-2.8 1.2-.8 2.4-2 3.6-3.2l.4-.4c1.2-1.2 2-2.4 2.8-3.6s1.6-2.4 2-4c0-.4 0-.4.4-.8.8-1.6 1.2-3.6 1.6-5.2.4-1.6.4-3.6.4-5.2s0-3.6-.4-5.2-.8-3.2-1.6-5.2c-1.2-2.8-2.8-5.2-4.8-7.2l-.8-.8c-1.2-1.2-2.4-2-4-3.2-1.6-.8-2.8-1.6-4.4-2.4-1.6-.8-3.2-1.2-4.8-1.6-2-.4-3.6-.4-5.2-.4s-3.6 0-5.2.4-3.2.8-4.8 1.6h-.4c-1.6.8-3.2 1.6-4.4 2.4-1.6 1.2-2.8 2-4 3.2-1.2 1.2-2.4 2.4-3.2 3.6-.8 1.2-1.6 2.8-2.4 4.4-.8 1.6-1.2 3.2-1.6 4.8-.4 2-.4 3.6-.4 5.2s0 3.6.4 5.2c.4 3.2 1.2 4.8 1.6 6.4zm55.6 146.4h-9.2v-98c0-5.6-4.4-10.4-10.4-10.4h-42c-5.6 0-10.4 4.4-10.4 10.4v21.6c0 5.6 4.4 10.4 10.4 10.4h8.4v66.4H188c-5.6 0-10.4 4.4-10.4 10.4v21.6c0 5.6 4.4 10.4 10.4 10.4h61.6c5.6 0 10.4-4.4 10.4-10.4V300c0-6-4.8-10.8-10.4-10.8z"/><path d="M218.8 0C98 0 0 98 0 218.8s98 218.8 218.8 218.8 218.8-98 218.8-218.8S339.6 0 218.8 0zm0 408.8c-104.8 0-190-85.2-190-190s85.2-190 190-190 190 85.2 190 190-85.2 190-190 190z"/></symbol><symbol viewBox="0 0 612 612" id="mail" xmlns="http://www.w3.org/2000/svg"><path d="M306.768 346.814h.131c4.615 0 9.176-1.339 12.866-3.777l1.001-.643c.218-.142.446-.271.675-.424l11.658-9.645 278.259-229.624c-.576-.795-1.557-1.339-2.602-1.339H3.233c-.751 0-1.448.272-2.003.729l291.125 239.954c3.669 3.038 8.904 4.769 14.413 4.769zM0 133.899v340.37l208.55-168.471L0 133.899zm403.668 173.042L612 474.356V135.031l-208.332 171.91zm-66.237 54.644c-8.305 6.814-19.168 10.57-30.576 10.57-11.451 0-22.304-3.734-30.587-10.516l-47.765-39.394L0 506.806v.587c0 1.753 1.502 3.244 3.276 3.244h605.491c1.741 0 3.232-1.491 3.232-3.255v-.544L383.693 323.4l-46.262 38.185z"/></symbol><symbol viewBox="0 0 578.106 578.106" id="phone" xmlns="http://www.w3.org/2000/svg"><path d="M577.83 456.128c1.225 9.385-1.635 17.545-8.568 24.48l-81.396 80.781c-3.672 4.08-8.465 7.551-14.381 10.404-5.916 2.857-11.729 4.693-17.439 5.508-.408 0-1.635.105-3.676.309-2.037.203-4.689.307-7.953.307-7.754 0-20.301-1.326-37.641-3.979s-38.555-9.182-63.645-19.584c-25.096-10.404-53.553-26.012-85.376-46.818-31.823-20.805-65.688-49.367-101.592-85.68-28.56-28.152-52.224-55.08-70.992-80.783-18.768-25.705-33.864-49.471-45.288-71.299-11.425-21.828-19.993-41.616-25.705-59.364S4.59 177.362 2.55 164.51-.306 141.56.102 134.216c.408-7.344.612-11.424.612-12.24.816-5.712 2.652-11.526 5.508-17.442s6.324-10.71 10.404-14.382L98.022 8.756c5.712-5.712 12.24-8.568 19.584-8.568 5.304 0 9.996 1.53 14.076 4.59s7.548 6.834 10.404 11.322l65.484 124.236c3.672 6.528 4.692 13.668 3.06 21.42-1.632 7.752-5.1 14.28-10.404 19.584l-29.988 29.988c-.816.816-1.53 2.142-2.142 3.978s-.918 3.366-.918 4.59c1.632 8.568 5.304 18.36 11.016 29.376 4.896 9.792 12.444 21.726 22.644 35.802s24.684 30.293 43.452 48.653c18.36 18.77 34.68 33.354 48.96 43.76 14.277 10.4 26.215 18.053 35.803 22.949 9.588 4.896 16.932 7.854 22.031 8.871l7.648 1.531c.816 0 2.145-.307 3.979-.918 1.836-.613 3.162-1.326 3.979-2.143l34.883-35.496c7.348-6.527 15.912-9.791 25.705-9.791 6.938 0 12.443 1.223 16.523 3.672h.611l118.115 69.768c8.571 5.308 13.67 12.038 15.303 20.198z"/></symbol></svg>